<mxfile host="app.diagrams.net" agent="Mozilla/5.0 (Windows NT 10.0; Win64; x64) AppleWebKit/537.36 (KHTML, like Gecko) Chrome/131.0.0.0 Safari/537.36" version="24.8.6">
  <diagram name="Page-1" id="b7a7eaba-c6c5-6fbe-34ae-1d3a4219ac39">
    <mxGraphModel dx="743" dy="383" grid="1" gridSize="11" guides="1" tooltips="1" connect="1" arrows="1" fold="1" page="1" pageScale="1.5" pageWidth="1169" pageHeight="826" background="none" math="0" shadow="0">
      <root>
        <mxCell id="0" style=";html=1;" />
        <mxCell id="1" style=";html=1;" parent="0" />
        <mxCell id="ooTEefm5wgO5lJ6nr4RK-21" style="edgeStyle=none;curved=1;rounded=0;orthogonalLoop=1;jettySize=auto;html=1;exitX=1;exitY=0.5;exitDx=0;exitDy=0;entryX=0;entryY=0.5;entryDx=0;entryDy=0;fontSize=12;startSize=8;endSize=8;" parent="1" source="279d4c6e8b4f5ae2-9" target="279d4c6e8b4f5ae2-10" edge="1">
          <mxGeometry relative="1" as="geometry" />
        </mxCell>
        <mxCell id="279d4c6e8b4f5ae2-9" value="&lt;font face=&quot;Lucida Console&quot;&gt;Achiziția imaginii&lt;/font&gt;" style="rounded=1;whiteSpace=wrap;html=1;shadow=1;strokeWidth=2;fontSize=20;" parent="1" vertex="1">
          <mxGeometry x="220" y="198" width="239" height="126" as="geometry" />
        </mxCell>
        <mxCell id="ooTEefm5wgO5lJ6nr4RK-22" style="edgeStyle=none;curved=1;rounded=0;orthogonalLoop=1;jettySize=auto;html=1;exitX=1;exitY=0.5;exitDx=0;exitDy=0;entryX=0;entryY=0.5;entryDx=0;entryDy=0;fontSize=12;startSize=8;endSize=8;" parent="1" source="279d4c6e8b4f5ae2-10" target="ooTEefm5wgO5lJ6nr4RK-9" edge="1">
          <mxGeometry relative="1" as="geometry" />
        </mxCell>
        <mxCell id="279d4c6e8b4f5ae2-10" value="&lt;font face=&quot;Lucida Console&quot;&gt;Procesarea imaginii&lt;/font&gt;" style="rounded=1;whiteSpace=wrap;html=1;shadow=1;strokeWidth=2;fontSize=20;" parent="1" vertex="1">
          <mxGeometry x="552.75" y="198" width="244.5" height="126" as="geometry" />
        </mxCell>
        <mxCell id="Vk0eOyvLc9wlMmRyrGUQ-5" value="" style="edgeStyle=orthogonalEdgeStyle;rounded=0;orthogonalLoop=1;jettySize=auto;html=1;" parent="1" source="ooTEefm5wgO5lJ6nr4RK-9" target="ooTEefm5wgO5lJ6nr4RK-41" edge="1">
          <mxGeometry relative="1" as="geometry" />
        </mxCell>
        <mxCell id="ooTEefm5wgO5lJ6nr4RK-9" value="&lt;font face=&quot;Lucida Console&quot;&gt;Calcul EAR (Eye Aspect Ratio)&lt;/font&gt;" style="rounded=1;whiteSpace=wrap;html=1;shadow=1;strokeWidth=2;fontSize=20;" parent="1" vertex="1">
          <mxGeometry x="891" y="198" width="244.5" height="126" as="geometry" />
        </mxCell>
        <mxCell id="ooTEefm5wgO5lJ6nr4RK-39" style="edgeStyle=none;curved=1;rounded=0;orthogonalLoop=1;jettySize=auto;html=1;exitX=0;exitY=0.5;exitDx=0;exitDy=0;entryX=1;entryY=0.5;entryDx=0;entryDy=0;fontSize=12;startSize=8;endSize=8;" parent="1" source="ooTEefm5wgO5lJ6nr4RK-13" target="ooTEefm5wgO5lJ6nr4RK-32" edge="1">
          <mxGeometry relative="1" as="geometry" />
        </mxCell>
        <mxCell id="ooTEefm5wgO5lJ6nr4RK-13" value="&lt;font face=&quot;Lucida Console&quot;&gt;Procesarea rezultatelor&lt;/font&gt;" style="rounded=1;whiteSpace=wrap;html=1;shadow=1;strokeWidth=2;fontSize=20;" parent="1" vertex="1">
          <mxGeometry x="891" y="497" width="244.5" height="130" as="geometry" />
        </mxCell>
        <mxCell id="ooTEefm5wgO5lJ6nr4RK-26" value="&lt;font face=&quot;Lucida Console&quot; style=&quot;font-size: 14px;&quot;&gt;- captură continuă în timp real a utilizatorului&amp;nbsp;&lt;/font&gt;" style="text;strokeColor=none;fillColor=none;html=1;align=center;verticalAlign=middle;whiteSpace=wrap;rounded=0;fontSize=16;" parent="1" vertex="1">
          <mxGeometry x="209" y="308" width="250" height="130" as="geometry" />
        </mxCell>
        <mxCell id="ooTEefm5wgO5lJ6nr4RK-28" style="edgeStyle=none;curved=1;rounded=0;orthogonalLoop=1;jettySize=auto;html=1;exitX=0.5;exitY=0;exitDx=0;exitDy=0;fontSize=12;startSize=8;endSize=8;" parent="1" source="ooTEefm5wgO5lJ6nr4RK-26" target="ooTEefm5wgO5lJ6nr4RK-26" edge="1">
          <mxGeometry relative="1" as="geometry" />
        </mxCell>
        <mxCell id="ooTEefm5wgO5lJ6nr4RK-29" value="&lt;font face=&quot;Lucida Console&quot;&gt;&lt;span style=&quot;font-size: 14px;&quot;&gt;- conversia imaginii din format BGR în RGB pentru a putea fi procesat de modelul MediaPipe Face Mesh&lt;/span&gt;&lt;/font&gt;&lt;div&gt;&lt;span style=&quot;font-size: 14px; font-family: &amp;quot;Lucida Console&amp;quot;; background-color: initial;&quot;&gt;- detectarea feței și a ochilor cu modelul MediaPipe&amp;nbsp;&lt;/span&gt;&lt;/div&gt;" style="text;strokeColor=none;fillColor=none;html=1;align=center;verticalAlign=middle;whiteSpace=wrap;rounded=0;fontSize=16;" parent="1" vertex="1">
          <mxGeometry x="552.25" y="363" width="245.5" height="100" as="geometry" />
        </mxCell>
        <mxCell id="ooTEefm5wgO5lJ6nr4RK-30" value="&lt;font face=&quot;Lucida Console&quot;&gt;&lt;span style=&quot;font-size: 14px;&quot;&gt;- calcul EAR pentru fiecare ochi utilizând coordonatele ochilor&lt;/span&gt;&lt;/font&gt;&lt;div&gt;&lt;font face=&quot;Lucida Console&quot;&gt;&lt;span style=&quot;font-size: 14px;&quot;&gt;- media valorilor EAR pentru ochiul stâng și drept&lt;/span&gt;&lt;/font&gt;&lt;/div&gt;" style="text;strokeColor=none;fillColor=none;html=1;align=center;verticalAlign=middle;whiteSpace=wrap;rounded=0;fontSize=16;" parent="1" vertex="1">
          <mxGeometry x="859.87" y="330" width="310" height="110" as="geometry" />
        </mxCell>
        <mxCell id="ooTEefm5wgO5lJ6nr4RK-31" value="&lt;font face=&quot;Lucida Console&quot;&gt;&lt;span style=&quot;font-size: 14px;&quot;&gt;- starea ochilor este determinată pe baza mediei EAR: Awake, Tired, Exhausted, Sleeping&lt;/span&gt;&lt;/font&gt;&lt;div&gt;&lt;font face=&quot;Lucida Console&quot;&gt;&lt;span style=&quot;font-size: 14px;&quot;&gt;- rata clipirilor:&amp;nbsp;&lt;/span&gt;&lt;/font&gt;&lt;/div&gt;&lt;div&gt;&lt;font face=&quot;Lucida Console&quot;&gt;&lt;span style=&quot;font-size: 14px;&quot;&gt;Microsleeping (-4), Focused(4-11), Idle(12-20), Stressed(20+)&lt;/span&gt;&lt;/font&gt;&lt;/div&gt;" style="text;strokeColor=none;fillColor=none;html=1;align=center;verticalAlign=middle;whiteSpace=wrap;rounded=0;fontSize=16;" parent="1" vertex="1">
          <mxGeometry x="1206.75" y="649" width="310" height="120" as="geometry" />
        </mxCell>
        <mxCell id="ooTEefm5wgO5lJ6nr4RK-40" style="edgeStyle=none;curved=1;rounded=0;orthogonalLoop=1;jettySize=auto;html=1;exitX=0;exitY=0.5;exitDx=0;exitDy=0;entryX=1;entryY=0.5;entryDx=0;entryDy=0;fontSize=12;startSize=8;endSize=8;" parent="1" source="ooTEefm5wgO5lJ6nr4RK-32" target="ooTEefm5wgO5lJ6nr4RK-36" edge="1">
          <mxGeometry relative="1" as="geometry" />
        </mxCell>
        <mxCell id="ooTEefm5wgO5lJ6nr4RK-32" value="&lt;font face=&quot;Lucida Console&quot;&gt;Evaluarea performanței&lt;/font&gt;" style="rounded=1;whiteSpace=wrap;html=1;shadow=1;strokeWidth=2;fontSize=20;" parent="1" vertex="1">
          <mxGeometry x="552.75" y="497" width="244.5" height="126" as="geometry" />
        </mxCell>
        <mxCell id="ooTEefm5wgO5lJ6nr4RK-35" value="&lt;font face=&quot;Lucida Console&quot;&gt;&lt;span style=&quot;font-size: 14px;&quot;&gt;- la fiecare interval de timp definit, datele sunt stocate într-un fișier text&lt;/span&gt;&lt;/font&gt;" style="text;strokeColor=none;fillColor=none;html=1;align=center;verticalAlign=middle;whiteSpace=wrap;rounded=0;fontSize=16;" parent="1" vertex="1">
          <mxGeometry x="540" y="660" width="270" height="30" as="geometry" />
        </mxCell>
        <mxCell id="ooTEefm5wgO5lJ6nr4RK-36" value="&lt;font face=&quot;Lucida Console&quot;&gt;Vizualizarea rezultatelor&lt;/font&gt;" style="rounded=1;whiteSpace=wrap;html=1;shadow=1;strokeWidth=2;fontSize=20;" parent="1" vertex="1">
          <mxGeometry x="214.5" y="497" width="244.5" height="126" as="geometry" />
        </mxCell>
        <mxCell id="ooTEefm5wgO5lJ6nr4RK-37" value="&lt;font style=&quot;font-size: 14px;&quot; face=&quot;Lucida Console&quot;&gt;- afișarea rezultatelor pe cadrul video (EAR și media sa, numărul total de clipiri și rata de clipire, starea ochilor, direcția privirii detectate)&lt;/font&gt;" style="text;strokeColor=none;fillColor=none;html=1;align=center;verticalAlign=middle;whiteSpace=wrap;rounded=0;fontSize=16;" parent="1" vertex="1">
          <mxGeometry x="211.75" y="693" width="250" height="30" as="geometry" />
        </mxCell>
        <mxCell id="Vk0eOyvLc9wlMmRyrGUQ-11" style="edgeStyle=orthogonalEdgeStyle;rounded=0;orthogonalLoop=1;jettySize=auto;html=1;exitX=0.5;exitY=1;exitDx=0;exitDy=0;" parent="1" source="ooTEefm5wgO5lJ6nr4RK-41" edge="1">
          <mxGeometry relative="1" as="geometry">
            <mxPoint x="1361.5" y="495" as="targetPoint" />
          </mxGeometry>
        </mxCell>
        <mxCell id="ooTEefm5wgO5lJ6nr4RK-41" value="&lt;font face=&quot;Lucida Console&quot;&gt;Detectarea clipirii&lt;/font&gt;" style="rounded=1;whiteSpace=wrap;html=1;shadow=1;strokeWidth=2;fontSize=20;" parent="1" vertex="1">
          <mxGeometry x="1239.5" y="198" width="244.5" height="126" as="geometry" />
        </mxCell>
        <mxCell id="ooTEefm5wgO5lJ6nr4RK-42" value="&lt;font style=&quot;font-size: 14px;&quot; face=&quot;Lucida Console&quot;&gt;- EARul calculat se compară cu un prag determinat pe baza mediei rulante EAR&lt;/font&gt;&lt;div&gt;&lt;font style=&quot;font-size: 14px;&quot; face=&quot;Lucida Console&quot;&gt;- se calculează rata clipirilor pe un timp de 60 secunde&lt;/font&gt;&lt;/div&gt;&lt;div&gt;&lt;font style=&quot;font-size: 14px;&quot; face=&quot;Lucida Console&quot;&gt;&amp;nbsp;&lt;/font&gt;&lt;/div&gt;" style="text;strokeColor=none;fillColor=none;html=1;align=center;verticalAlign=middle;whiteSpace=wrap;rounded=0;fontSize=16;" parent="1" vertex="1">
          <mxGeometry x="1209" y="385" width="286" height="30" as="geometry" />
        </mxCell>
        <mxCell id="Vk0eOyvLc9wlMmRyrGUQ-12" style="edgeStyle=orthogonalEdgeStyle;rounded=0;orthogonalLoop=1;jettySize=auto;html=1;exitX=0;exitY=0.5;exitDx=0;exitDy=0;entryX=1;entryY=0.5;entryDx=0;entryDy=0;" parent="1" source="ooTEefm5wgO5lJ6nr4RK-43" target="ooTEefm5wgO5lJ6nr4RK-13" edge="1">
          <mxGeometry relative="1" as="geometry" />
        </mxCell>
        <mxCell id="ooTEefm5wgO5lJ6nr4RK-43" value="&lt;font face=&quot;Lucida Console&quot;&gt;Clasificarea stării ochilor și a categoriilor de clipire&lt;/font&gt;" style="rounded=1;whiteSpace=wrap;html=1;shadow=1;strokeWidth=2;fontSize=20;" parent="1" vertex="1">
          <mxGeometry x="1250.5" y="497" width="244.5" height="130" as="geometry" />
        </mxCell>
        <mxCell id="ooTEefm5wgO5lJ6nr4RK-45" value="&lt;font face=&quot;Lucida Console&quot;&gt;- estimarea direcției privirii și detecția atenției, analizând consistența privirii pentru a determina zonele de atenție focalizată sau de distragere&lt;/font&gt;" style="text;strokeColor=none;fillColor=none;html=1;align=center;verticalAlign=middle;whiteSpace=wrap;rounded=0;fontSize=16;" parent="1" vertex="1">
          <mxGeometry x="868.63" y="694" width="289.25" height="30" as="geometry" />
        </mxCell>
      </root>
    </mxGraphModel>
  </diagram>
</mxfile>
